<svg width="32" height="32" viewBox="0 0 32 32" fill="none" xmlns="http://www.w3.org/2000/svg">
<g clip-path="url(#clip0_23_1454)">
<path d="M29.9648 15.3689L16.6315 2.03555C16.4649 1.87 16.2396 1.77707 16.0048 1.77707C15.77 1.77707 15.5447 1.87 15.3781 2.03555L2.04479 15.3689C1.89917 15.5389 1.82308 15.7577 1.83172 15.9814C1.84036 16.2051 1.9331 16.4173 2.0914 16.5756C2.24971 16.7339 2.46192 16.8267 2.68564 16.8353C2.90935 16.8439 3.12808 16.7678 3.29813 16.6222L16.0003 3.92L28.7026 16.6311C28.8726 16.7767 29.0914 16.8528 29.3151 16.8442C29.5388 16.8355 29.751 16.7428 29.9093 16.5845C30.0676 16.4262 30.1603 16.214 30.169 15.9903C30.1776 15.7666 30.1015 15.5478 29.9559 15.3778L29.9648 15.3689Z" fill="#545454"/>
<path d="M24.8886 28.4444H20.4441V19.5556H11.5552V28.4444H7.11079V16L5.33301 17.7778V28.4444C5.33301 28.9159 5.52031 29.3681 5.85371 29.7015C6.1871 30.0349 6.63929 30.2222 7.11079 30.2222H13.333V21.3333H18.6663V30.2222H24.8886C25.3601 30.2222 25.8122 30.0349 26.1456 29.7015C26.479 29.3681 26.6663 28.9159 26.6663 28.4444V17.5644L24.8886 15.7867V28.4444Z" fill="#545454"/>
</g>
<defs>
<clipPath id="clip0_23_1454">
<rect width="32" height="32" fill="white"/>
</clipPath>
</defs>
</svg>
