<svg width="32" height="32" viewBox="0 0 32 32" fill="none" xmlns="http://www.w3.org/2000/svg">
<g clip-path="url(#clip0_15_900)">
<path d="M16 5.97363C14.9926 5.97363 14.0078 6.27235 13.1702 6.83201C12.3327 7.39168 11.6798 8.18715 11.2943 9.11783C10.9088 10.0485 10.808 11.0726 11.0045 12.0606C11.201 13.0486 11.6861 13.9562 12.3984 14.6685C13.1107 15.3808 14.0183 15.8659 15.0063 16.0624C15.9943 16.259 17.0184 16.1581 17.9491 15.7726C18.8798 15.3871 19.6752 14.7343 20.2349 13.8967C20.7946 13.0591 21.0933 12.0743 21.0933 11.067C21.0933 9.71613 20.5567 8.42062 19.6015 7.46544C18.6463 6.51025 17.3508 5.97363 16 5.97363ZM16 14.3825C15.3442 14.3825 14.7032 14.1881 14.1579 13.8238C13.6127 13.4594 13.1877 12.9416 12.9368 12.3358C12.6858 11.7299 12.6202 11.0633 12.7481 10.4201C12.876 9.77698 13.1918 9.1862 13.6555 8.72251C14.1192 8.25883 14.71 7.94305 15.3531 7.81512C15.9963 7.68719 16.6629 7.75285 17.2688 8.00379C17.8746 8.25474 18.3924 8.6797 18.7567 9.22494C19.1211 9.77018 19.3155 10.4112 19.3155 11.067C19.3132 11.9448 18.9628 12.7858 18.3413 13.4057C17.7197 14.0255 16.8778 14.3736 16 14.3736V14.3825Z" fill="white"/>
<path d="M16 1.77734C13.2313 1.77966 10.576 2.87751 8.61409 4.83112C6.65216 6.78473 5.54302 9.43533 5.52893 12.204C5.52893 16.3551 7.85782 19.8307 9.56449 22.364L9.8756 22.8262C11.5736 25.2872 13.3952 27.6606 15.3334 29.9373L16.0089 30.7285L16.6845 29.9373C18.6224 27.6604 20.444 25.287 22.1423 22.8262L22.4534 22.3551C24.1512 19.8218 26.48 16.3551 26.48 12.204C26.4659 9.43379 25.3556 6.78185 23.3917 4.82798C21.4279 2.87412 18.7703 1.77731 16 1.77734ZM20.9689 21.3329L20.6489 21.804C19.12 24.0973 17.0934 26.6662 16 27.9373C14.9512 26.6662 12.88 24.0973 11.3512 21.804L11.04 21.3329C9.46671 18.9862 7.30671 15.7773 7.30671 12.1685C7.30671 11.0268 7.53157 9.89638 7.96845 8.84166C8.40533 7.78694 9.04568 6.82859 9.85293 6.02134C10.6602 5.21409 11.6185 4.57374 12.6732 4.13686C13.728 3.69998 14.8584 3.47512 16 3.47512C17.1417 3.47512 18.2721 3.69998 19.3268 4.13686C20.3816 4.57374 21.3399 5.21409 22.1472 6.02134C22.9544 6.82859 23.5948 7.78694 24.0316 8.84166C24.4685 9.89638 24.6934 11.0268 24.6934 12.1685C24.6934 15.8129 22.5423 19.0218 20.9689 21.3329Z" fill="white"/>
</g>
<defs>
<clipPath id="clip0_15_900">
<rect width="32" height="32" fill="white"/>
</clipPath>
</defs>
</svg>
