<svg width="46" height="38" viewBox="0 0 46 38" fill="none" xmlns="http://www.w3.org/2000/svg">
<path d="M32.5555 6.33301H10.7777C9.06196 6.33301 7.66663 7.52901 7.66663 8.99967V15.6663H10.7777V11.6663L20.7333 18.0663C21.0027 18.2392 21.3301 18.3327 21.6666 18.3327C22.0031 18.3327 22.3306 18.2392 22.6 18.0663L32.5555 11.6663V23.6663H20.1111V26.333H32.5555C34.2713 26.333 35.6666 25.137 35.6666 23.6663V8.99967C35.6666 7.52901 34.2713 6.33301 32.5555 6.33301ZM21.6666 15.333L11.8137 8.99967H31.5195L21.6666 15.333Z" fill="white"/>
<path d="M3.83337 19H17.25V22.1667H3.83337V19ZM7.66671 23.75H19.1667V26.9167H7.66671V23.75ZM13.4167 28.5H21.0834V31.6667H13.4167V28.5Z" fill="white"/>
</svg>
