<svg width="28" height="28" viewBox="0 0 28 28" fill="none" xmlns="http://www.w3.org/2000/svg">
<path d="M8.9246 4.81233L8.92454 4.81234C8.55046 4.83443 8.21753 5.00066 7.94098 5.23598L7.91801 5.25552L7.89669 5.27685L5.52816 7.64537C4.98361 8.15297 4.82387 8.86159 4.81471 9.45016C4.74589 10.9707 5.50394 12.6243 6.05298 13.7606L6.05884 13.7727L6.06513 13.7847C7.60787 16.705 10.0465 19.0908 12.6565 20.9896L12.6724 21.0012L12.689 21.0119C14.271 22.0401 16.3116 23.1221 18.532 23.1886L18.5437 23.189L18.5554 23.189C19.1323 23.1883 19.8208 23.0333 20.3581 22.4855L22.733 20.1294L22.7331 20.1295L22.7427 20.1195C23.4484 19.3932 23.3059 18.2195 22.4066 17.6558L22.3981 17.6505L22.3895 17.6454L18.9357 15.6066L18.7593 15.5025H18.7058C18.0171 15.2278 17.2804 15.5052 16.8487 15.8325L16.805 15.8656L16.7666 15.9047L15.9223 16.7646C15.4836 16.6583 15.0559 16.4025 14.6056 16.0364C14.2879 15.778 14.0083 15.5092 13.7151 15.2274C13.5542 15.0728 13.3893 14.9142 13.2117 14.7513L13.2117 14.7513C12.4175 14.0227 11.6073 13.0584 11.2598 12.0672L11.9464 11.3807L11.9464 11.3807L11.9522 11.3748C12.4479 10.868 12.6568 10.0769 12.3088 9.33412L12.3013 9.31812L12.2931 9.3025L10.379 5.67263L10.3636 5.64334L10.3456 5.61553C10.0637 5.17915 9.58105 4.77362 8.9246 4.81233ZM0.75 14C0.75 6.68222 6.68222 0.75 14 0.75C21.3178 0.75 27.25 6.68222 27.25 14C27.25 21.3178 21.3178 27.25 14 27.25C6.68222 27.25 0.75 21.3178 0.75 14Z" stroke="white" stroke-width="1.5"/>
</svg>
