<svg width="45" height="42" viewBox="0 0 45 42" fill="none" xmlns="http://www.w3.org/2000/svg">
<path fill-rule="evenodd" clip-rule="evenodd" d="M42.2 21C42.2 25.8734 40.135 30.5471 36.4593 33.9931C32.7836 37.4391 27.7982 39.375 22.6 39.375C17.4018 39.375 12.4164 37.4391 8.74071 33.9931C5.06499 30.5471 3 25.8734 3 21C3 16.1266 5.06499 11.4529 8.74071 8.00691C12.4164 4.56093 17.4018 2.625 22.6 2.625C27.7982 2.625 32.7836 4.56093 36.4593 8.00691C40.135 11.4529 42.2 16.1266 42.2 21ZM0.200001 21C0.200001 26.5695 2.55999 31.911 6.76081 35.8492C10.9616 39.7875 16.6592 42 22.6 42C28.5408 42 34.2384 39.7875 38.4392 35.8492C42.64 31.911 45 26.5695 45 21C45 15.4305 42.64 10.089 38.4392 6.15076C34.2384 2.21249 28.5408 0 22.6 0C16.6592 0 10.9616 2.21249 6.76081 6.15076C2.55999 10.089 0.200001 15.4305 0.200001 21ZM21.2 30.1875C21.2 30.5356 21.3475 30.8694 21.6101 31.1156C21.8726 31.3617 22.2287 31.5 22.6 31.5C22.9713 31.5 23.3274 31.3617 23.5899 31.1156C23.8525 30.8694 24 30.5356 24 30.1875V14.9809L30.0088 20.6168C30.2717 20.8632 30.6282 21.0017 31 21.0017C31.3718 21.0017 31.7283 20.8632 31.9912 20.6168C32.2541 20.3703 32.4018 20.036 32.4018 19.6875C32.4018 19.339 32.2541 19.0047 31.9912 18.7582L23.5912 10.8832C23.4612 10.761 23.3067 10.664 23.1366 10.5979C22.9665 10.5317 22.7841 10.4977 22.6 10.4977C22.4159 10.4977 22.2335 10.5317 22.0634 10.5979C21.8933 10.664 21.7388 10.761 21.6088 10.8832L13.2088 18.7582C12.9459 19.0047 12.7982 19.339 12.7982 19.6875C12.7982 20.036 12.9459 20.3703 13.2088 20.6168C13.4717 20.8632 13.8282 21.0017 14.2 21.0017C14.5718 21.0017 14.9283 20.8632 15.1912 20.6168L21.2 14.9809V30.1875Z" fill="white"/>
</svg>
