<svg width="30" height="30" viewBox="0 0 30 30" fill="none" xmlns="http://www.w3.org/2000/svg">
<path d="M21.0564 1H8.14355C3.97695 1 0.599976 4.37758 0.599976 8.54357V21.4564C0.599976 25.623 3.97755 29 8.14415 29H21.0558C25.2224 29 28.6 25.6224 28.6 21.4558V8.54357C28.6 4.37698 25.223 1 21.0564 1Z" stroke="white" stroke-width="0.888889" stroke-miterlimit="10"/>
<path d="M14.5999 21.7587C18.3327 21.7587 21.3587 18.7327 21.3587 15C21.3587 11.2672 18.3327 8.24121 14.5999 8.24121C10.8672 8.24121 7.84119 11.2672 7.84119 15C7.84119 18.7327 10.8672 21.7587 14.5999 21.7587Z" stroke="white" stroke-width="0.888889" stroke-miterlimit="10"/>
<path d="M24.0323 6.79286C24.0323 7.46991 23.4835 8.01877 22.8064 8.01877C22.1294 8.01877 21.5805 7.46991 21.5805 6.79286C21.5805 6.11581 22.1294 5.56695 22.8064 5.56695C23.4835 5.56695 24.0323 6.11581 24.0323 6.79286Z" stroke="white" stroke-width="0.444444"/>
</svg>
