<svg width="29" height="28" viewBox="0 0 29 28" fill="none" xmlns="http://www.w3.org/2000/svg">
<path d="M27.8603 0.523733C27.5728 0.261604 27.2261 0.0899379 26.8571 0.0269349C26.4881 -0.0360681 26.1105 0.01194 25.7643 0.16587L1.87531 10.7742C1.48927 10.9487 1.16062 11.2482 0.932967 11.633C0.705318 12.0178 0.589444 12.4696 0.600728 12.9285C0.612012 13.3875 0.749919 13.8318 0.996142 14.2025C1.24237 14.5732 1.58526 14.8527 1.9793 15.004L7.1339 16.9722L9.92719 27.1303C9.93253 27.1508 9.94986 27.164 9.95786 27.1831C9.98664 27.2641 10.0287 27.3387 10.0819 27.4031C10.1627 27.5024 10.267 27.575 10.3832 27.6128C10.3965 27.6187 10.4059 27.6319 10.4192 27.6348H10.4272L10.4312 27.6363C10.5343 27.6607 10.6415 27.6546 10.7418 27.6187C10.7525 27.6157 10.7632 27.6157 10.7752 27.6113C10.8715 27.5742 10.9587 27.5129 11.0298 27.4324C11.0378 27.4221 11.0512 27.4207 11.0592 27.4119L15.0765 22.5338L20.939 27.5277C21.295 27.8343 21.7337 28 22.1857 28C23.1643 28 24.0083 27.2461 24.2097 26.1945L28.5589 2.70171C28.6327 2.30289 28.6067 1.88952 28.4836 1.50569C28.3606 1.12186 28.1451 0.781971 27.8603 0.522266V0.523733ZM11.3845 18.9009L10.4419 23.9418L8.47521 16.7874L18.2284 11.1995L11.5658 18.5298C11.4736 18.6312 11.4105 18.7603 11.3845 18.9009ZM22.903 25.8998C22.878 26.0327 22.8223 26.1564 22.7413 26.2589C22.6602 26.3614 22.5566 26.4392 22.4404 26.4849C22.3269 26.533 22.2041 26.5477 22.0839 26.5276C21.9637 26.5076 21.8504 26.4534 21.755 26.3706L15.4045 20.9601C15.2717 20.8473 15.1052 20.7938 14.9381 20.8101C14.7711 20.8264 14.6158 20.9114 14.5031 21.0481L11.7072 24.4375L12.6485 19.4113L22.2337 8.86605C22.3459 8.74217 22.4142 8.57823 22.4263 8.40382C22.4383 8.22941 22.3932 8.05602 22.2993 7.91493C22.2053 7.77384 22.0685 7.67435 21.9137 7.63441C21.7589 7.59447 21.5962 7.61672 21.455 7.69713L7.63789 15.6141L2.4153 13.6165C2.27683 13.5662 2.15605 13.4697 2.06978 13.3404C1.98351 13.211 1.93604 13.0553 1.93397 12.8949C1.92733 12.7331 1.96663 12.5731 2.04643 12.4369C2.12623 12.3008 2.24256 12.1953 2.3793 12.1352L26.2643 1.52692C26.3867 1.46972 26.5212 1.45122 26.6526 1.4735C26.7841 1.49578 26.9072 1.55797 27.0083 1.65306C27.1088 1.7425 27.1847 1.86092 27.2275 1.99507C27.2704 2.12923 27.2785 2.27385 27.251 2.41278L22.903 25.9012V25.8998Z" fill="white"/>
</svg>
