<svg width="29" height="28" viewBox="0 0 29 28" fill="none" xmlns="http://www.w3.org/2000/svg">
<path d="M14.602 8.02101e-08C12.1511 -0.000262227 9.74311 0.64284 7.61871 1.86501C5.49431 3.08718 3.72797 4.84559 2.4963 6.96444C1.26462 9.08329 0.610769 11.4883 0.600108 13.9391C0.589447 16.3899 1.22235 18.8005 2.43555 20.93L1.1755 25.354C1.09473 25.6413 1.09193 25.9448 1.1674 26.2335C1.24286 26.5222 1.39386 26.7856 1.60487 26.9966C1.81588 27.2076 2.07928 27.3586 2.36799 27.4341C2.65671 27.5096 2.96031 27.5068 3.24758 27.426L7.67176 26.166C9.53478 27.2268 11.6165 27.8455 13.7565 27.9746C15.8965 28.1037 18.0375 27.7396 20.0145 26.9104C21.9916 26.0812 23.7517 24.8091 25.1594 23.1922C26.567 21.5752 27.5845 19.6566 28.1334 17.5843C28.6822 15.512 28.7478 13.3413 28.3251 11.2396C27.9024 9.13787 27.0027 7.16131 25.6953 5.46231C24.3878 3.7633 22.7077 2.38722 20.7844 1.44017C18.861 0.493124 16.7459 0.000402994 14.602 8.02101e-08ZM14.602 26.88C12.2855 26.8854 10.011 26.2611 8.02177 25.074C7.93494 25.0298 7.83919 25.0058 7.74176 25.004H7.58776L2.93957 26.334C2.84459 26.3595 2.74457 26.3595 2.64958 26.3341C2.55459 26.3086 2.46797 26.2586 2.39843 26.1891C2.3289 26.1196 2.2789 26.033 2.25346 25.938C2.22803 25.843 2.22805 25.743 2.25354 25.648L3.58359 21C3.62297 20.8536 3.60284 20.6976 3.52759 20.566C2.0788 18.1211 1.4793 15.2658 1.82248 12.4447C2.16566 9.62363 3.43224 6.99526 5.42493 4.96901C7.41763 2.94276 10.0245 1.63241 12.8396 1.24207C15.6546 0.851739 18.5197 1.40334 20.9886 2.81094C23.4575 4.21855 25.3915 6.40312 26.4894 9.02438C27.5872 11.6456 27.7873 14.5564 27.0585 17.3032C26.3296 20.05 24.7128 22.4787 22.4597 24.2108C20.2067 25.943 17.444 26.8815 14.602 26.88ZM21.6723 16.59L18.8162 14.966C18.5558 14.8168 18.2604 14.7395 17.9603 14.742C17.6602 14.7444 17.3661 14.8266 17.1081 14.98L15.1761 16.142C14.0123 15.5384 13.0635 14.5898 12.46 13.426L13.622 11.494C13.7754 11.2361 13.8576 10.942 13.86 10.6419C13.8625 10.3418 13.7852 10.0464 13.636 9.786L12.0119 6.93C11.8771 6.69643 11.6832 6.50237 11.4498 6.36724C11.2164 6.23211 10.9516 6.16064 10.6819 6.16C9.49609 6.15999 8.35865 6.63007 7.51886 7.46721C6.67906 8.30434 6.20541 9.44026 6.2017 10.626C6.19986 12.1715 6.5027 13.7022 7.09289 15.1307C7.68309 16.5591 8.54907 17.8571 9.64131 18.9506C10.7336 20.0441 12.0306 20.9116 13.4584 21.5035C14.8862 22.0954 16.4166 22.4 17.9622 22.4H17.9762C19.162 22.3963 20.2979 21.9227 21.1351 21.0829C21.9723 20.2431 22.4424 19.1057 22.4424 17.92C22.4417 17.6503 22.3702 17.3855 22.2351 17.1521C22.1 16.9187 21.9059 16.7248 21.6723 16.59ZM17.9762 21.28H17.9622C15.1389 21.2763 12.4325 20.1522 10.4374 18.1546C8.44234 16.157 7.32174 13.4492 7.32175 10.626C7.32545 9.7373 7.6811 8.88626 8.31084 8.25916C8.94059 7.63207 9.79314 7.27999 10.6819 7.28C10.7536 7.28098 10.8237 7.30093 10.8852 7.33782C10.9467 7.3747 10.9973 7.42721 11.0319 7.49L12.67 10.346C12.7178 10.4341 12.7428 10.5328 12.7428 10.633C12.7428 10.7332 12.7178 10.8319 12.67 10.92L11.3539 13.104C11.3054 13.1808 11.2774 13.2687 11.2725 13.3594C11.2676 13.45 11.286 13.5404 11.3259 13.622C12.055 15.2466 13.3554 16.5469 14.9801 17.276C15.0616 17.3159 15.152 17.3343 15.2427 17.3294C15.3334 17.3245 15.4213 17.2965 15.4981 17.248L17.6822 15.932C17.7703 15.8842 17.8689 15.8592 17.9692 15.8592C18.0694 15.8592 18.1681 15.8842 18.2562 15.932L21.1123 17.57C21.1751 17.6046 21.2276 17.6552 21.2645 17.7167C21.3014 17.7782 21.3213 17.8483 21.3223 17.92C21.3223 18.8087 20.9702 19.6612 20.3431 20.2909C19.716 20.9207 18.8649 21.2763 17.9762 21.28Z" fill="white"/>
</svg>
