<svg width="29" height="28" viewBox="0 0 29 28" fill="none" xmlns="http://www.w3.org/2000/svg">
<path d="M19.1 16.4893C18.5132 15.859 17.8107 15.3475 17.0306 14.9827C18.1399 14.2991 19.102 13.4016 19.8609 12.3424C20.6198 11.2832 21.1602 10.0835 21.4506 8.81333C21.473 8.72688 21.4778 8.63681 21.4647 8.54848C21.4516 8.46015 21.4208 8.37535 21.3743 8.29912C21.3278 8.22289 21.2665 8.15678 21.1939 8.10472C21.1213 8.05266 21.0391 8.0157 20.952 7.99604C20.8649 7.97639 20.7747 7.97443 20.6868 7.9903C20.5989 8.00616 20.5151 8.03952 20.4404 8.08839C20.3656 8.13726 20.3015 8.20064 20.2517 8.27479C20.2019 8.34893 20.1676 8.43232 20.1506 8.52C19.8546 9.82057 19.2559 11.033 18.4034 12.0588C17.5509 13.0846 16.4684 13.895 15.244 14.424C15.0986 14.4 14.9506 14.3933 14.8053 14.3787V8.66933C14.8016 8.6107 14.7899 8.55283 14.7706 8.49733C14.7666 8.46856 14.7608 8.44006 14.7533 8.412C14.7224 8.34162 14.6795 8.27711 14.6266 8.22133C14.62 8.21467 14.6173 8.20533 14.612 8.2C14.5642 8.15597 14.5103 8.11914 14.452 8.09067C14.4333 8.08 14.4186 8.064 14.4 8.056C14.3553 8.04199 14.3093 8.03261 14.2626 8.028C14.2235 8.01573 14.1834 8.00725 14.1426 8.00267L13.2693 8H13.2666C13.0898 7.99965 12.9201 8.06955 12.7948 8.19432C12.6696 8.31909 12.599 8.48852 12.5986 8.66533C12.5983 8.84214 12.6682 9.01185 12.793 9.13713C12.9177 9.2624 13.0872 9.33298 13.264 9.33333H13.4666V16.6133C13.4666 16.6227 13.472 16.6307 13.472 16.64V17.9707C10.6334 15.5644 8.74027 12.2294 8.12931 8.55867C8.09675 8.38596 7.99859 8.23257 7.85541 8.13065C7.71223 8.02874 7.53515 7.98621 7.36131 8.012C7.18698 8.04137 7.03146 8.13878 6.92895 8.2828C6.82643 8.42682 6.78531 8.60567 6.81464 8.78C7.56521 13.2509 10.0587 17.2414 13.748 19.876C13.7613 19.8853 13.7773 19.8813 13.7893 19.8893C13.8924 19.96 14.0137 19.9994 14.1386 20.0027C14.2368 20.0014 14.3334 19.9782 14.4213 19.9347L14.4426 19.9293C14.456 19.9227 14.464 19.9053 14.4773 19.8973C14.5781 19.8377 14.661 19.752 14.7173 19.6493C14.7728 19.5541 14.8031 19.4462 14.8053 19.336V15.6827C16.0771 15.8418 17.2512 16.447 18.1186 17.3907L20.3146 19.7867C20.4342 19.9168 20.6005 19.9941 20.777 20.0016C20.8644 20.0053 20.9517 19.9918 21.0339 19.9618C21.1161 19.9318 21.1915 19.8859 21.256 19.8267C21.3204 19.7675 21.3726 19.6962 21.4094 19.6169C21.4463 19.5375 21.4672 19.4517 21.4709 19.3643C21.4746 19.2769 21.4611 19.1896 21.4311 19.1074C21.4011 19.0252 21.3552 18.9498 21.296 18.8853L19.1 16.4893ZM18.6973 0H10.516C2.63998 0 0.599976 2.036 0.599976 9.90267V18.084C0.599976 25.9613 2.63598 28 10.5026 28H18.684C26.5613 28 28.6 25.964 28.6 18.0973V9.916C28.6 2.03867 26.564 0 18.6973 0ZM27.2666 18.0973C27.2666 25.2253 25.8226 26.6667 18.6826 26.6667H10.504C3.37331 26.6667 1.93331 25.2227 1.93331 18.0827V9.904C1.93331 2.77333 3.37731 1.33333 10.5173 1.33333H18.6973C25.8253 1.33333 27.2666 2.77733 27.2666 9.91733V18.0973Z" fill="white"/>
</svg>
