<svg width="30" height="30" viewBox="0 0 30 30" fill="none" xmlns="http://www.w3.org/2000/svg">
<path d="M21.4564 1H8.54357C4.37698 1 1 4.37758 1 8.54357V21.4564C1 25.623 4.37758 29 8.54417 29H21.4558C25.6224 29 29 25.6224 29 21.4558V8.54357C29 4.37698 25.623 1 21.4564 1Z" stroke="#FD3B4A" stroke-width="0.888889" stroke-miterlimit="10"/>
<path d="M15 21.7587C18.7327 21.7587 21.7587 18.7327 21.7587 15C21.7587 11.2672 18.7327 8.24123 15 8.24123C11.2672 8.24123 8.24121 11.2672 8.24121 15C8.24121 18.7327 11.2672 21.7587 15 21.7587Z" stroke="#FD3B4A" stroke-width="0.888889" stroke-miterlimit="10"/>
<path d="M24.4323 6.79319C24.4323 7.47024 23.8835 8.0191 23.2064 8.0191C22.5294 8.0191 21.9805 7.47024 21.9805 6.79319C21.9805 6.11614 22.5294 5.56728 23.2064 5.56728C23.8835 5.56728 24.4323 6.11614 24.4323 6.79319Z" stroke="#FD3B4A" stroke-width="0.444444"/>
</svg>
