<svg width="28" height="28" viewBox="0 0 28 28" fill="none" xmlns="http://www.w3.org/2000/svg">
<path d="M20.1004 0C17.7169 0 15.4856 1.13061 14 3.02494C12.5144 1.13055 10.2832 0 7.89957 0C3.54375 0 0 3.71252 0 8.27592C0 11.8492 2.03385 15.9824 6.04492 20.5605C9.13175 24.0836 12.4897 26.8114 13.4454 27.5636L13.9998 28L14.5543 27.5637C15.5099 26.8115 18.868 24.0837 21.9549 20.5606C25.9661 15.9825 28 11.8493 28 8.27592C28 3.71252 24.4562 0 20.1004 0ZM20.5948 19.2526C18.0558 22.1504 15.3242 24.4929 13.9998 25.5726C12.6755 24.4929 9.944 22.1504 7.40498 19.2526C3.76837 15.1019 1.84615 11.3062 1.84615 8.27592C1.84615 4.77905 4.56172 1.93411 7.89957 1.93411C10.0961 1.93411 12.1243 3.18831 13.1927 5.20732L14 6.73308L14.8073 5.20732C15.8756 3.18838 17.9038 1.93411 20.1004 1.93411C23.4383 1.93411 26.1538 4.77899 26.1538 8.27592C26.1538 11.3063 24.2316 15.102 20.5948 19.2526Z" fill="#FD3B4A"/>
</svg>
