<svg width="33" height="33" viewBox="0 0 33 33" fill="none" xmlns="http://www.w3.org/2000/svg">
<path d="M16.25 0.5C7.41344 0.5 0.25 7.66344 0.25 16.5C0.25 25.3366 7.41344 32.5 16.25 32.5C25.0866 32.5 32.25 25.3366 32.25 16.5C32.25 7.66344 25.0866 0.5 16.25 0.5ZM10.5 6.85547C10.8297 6.83603 11.1276 7.03307 11.3535 7.3828L13.541 11.5312C13.7713 12.0228 13.6405 12.5491 13.2969 12.9004L12.2949 13.9023C12.2331 13.9871 12.1924 14.0825 12.1914 14.1875C12.5757 15.6748 13.7412 17.0467 14.7696 17.9902C15.7979 18.9337 16.9031 20.211 18.3379 20.5137C18.5152 20.5631 18.7325 20.5809 18.8594 20.4629L20.0234 19.2774C20.4253 18.9728 21.0065 18.8252 21.4355 19.0742H21.4551L25.4023 21.4043C25.9817 21.7675 26.0417 22.4695 25.6269 22.8965L22.9082 25.5938C22.5067 26.0055 21.9733 26.1439 21.4551 26.1445C19.1632 26.0759 16.9976 24.951 15.2188 23.7949C12.2991 21.6709 9.62085 19.0364 7.93947 15.8535C7.29461 14.5189 6.53709 12.8159 6.60939 11.3262C6.61584 10.7658 6.76747 10.2167 7.16213 9.85552L9.88088 7.13677C10.0927 6.95656 10.3022 6.86715 10.5 6.85547Z" fill="#FD3B4A"/>
</svg>
