<svg width="28" height="28" viewBox="0 0 28 28" fill="none" xmlns="http://www.w3.org/2000/svg">
<path d="M27.2603 0.523733C26.9728 0.261604 26.6262 0.0899379 26.2572 0.0269349C25.8882 -0.0360681 25.5105 0.01194 25.1643 0.16587L1.27533 10.7742C0.889296 10.9487 0.56064 11.2482 0.332991 11.633C0.105342 12.0178 -0.0105313 12.4696 0.000752312 12.9285C0.012036 13.3875 0.149943 13.8318 0.396167 14.2025C0.64239 14.5732 0.985284 14.8527 1.37933 15.004L6.53392 16.9722L9.32722 27.1303C9.33255 27.1508 9.34988 27.164 9.35788 27.1831C9.38666 27.2641 9.42869 27.3387 9.48188 27.4031C9.5627 27.5024 9.66703 27.575 9.78321 27.6128C9.79654 27.6187 9.80588 27.6319 9.81921 27.6348H9.82721L9.83121 27.6363C9.93436 27.6607 10.0415 27.6546 10.1419 27.6187C10.1525 27.6157 10.1632 27.6157 10.1752 27.6113C10.2715 27.5742 10.3587 27.5129 10.4299 27.4324C10.4379 27.4221 10.4512 27.4207 10.4592 27.4119L14.4765 22.5338L20.3391 27.5277C20.6951 27.8343 21.1337 28 21.5857 28C22.5644 28 23.4084 27.2461 23.6097 26.1945L27.959 2.70171C28.0327 2.30289 28.0067 1.88952 27.8837 1.50569C27.7606 1.12186 27.5452 0.781971 27.2603 0.522266V0.523733ZM10.7845 18.9009L9.84188 23.9418L7.87524 16.7874L17.6284 11.1995L10.9659 18.5298C10.8736 18.6312 10.8105 18.7603 10.7845 18.9009ZM22.303 25.8998C22.278 26.0327 22.2223 26.1564 22.1413 26.2589C22.0603 26.3614 21.9566 26.4392 21.8404 26.4849C21.7269 26.533 21.6041 26.5477 21.4839 26.5276C21.3638 26.5076 21.2504 26.4534 21.1551 26.3706L14.8045 20.9601C14.6717 20.8473 14.5052 20.7938 14.3382 20.8101C14.1711 20.8264 14.0158 20.9114 13.9032 21.0481L11.1072 24.4375L12.0485 19.4113L21.6337 8.86605C21.746 8.74217 21.8143 8.57823 21.8263 8.40382C21.8383 8.22941 21.7933 8.05602 21.6993 7.91493C21.6053 7.77384 21.4686 7.67435 21.3138 7.63441C21.159 7.59447 20.9963 7.61672 20.8551 7.69713L7.03792 15.6141L1.81532 13.6165C1.67685 13.5662 1.55608 13.4697 1.46981 13.3404C1.38354 13.211 1.33607 13.0553 1.334 12.8949C1.32735 12.7331 1.36666 12.5731 1.44645 12.4369C1.52625 12.3008 1.64259 12.1953 1.77932 12.1352L25.6643 1.52692C25.7867 1.46972 25.9212 1.45122 26.0526 1.4735C26.1841 1.49578 26.3073 1.55797 26.4083 1.65306C26.5088 1.7425 26.5847 1.86092 26.6276 1.99507C26.6704 2.12923 26.6785 2.27385 26.651 2.41278L22.303 25.9012V25.8998Z" fill="#FD3B4A"/>
</svg>
