<svg width="28" height="28" viewBox="0 0 28 28" fill="none" xmlns="http://www.w3.org/2000/svg">
<path d="M18.5 16.4893C17.9133 15.859 17.2107 15.3475 16.4307 14.9827C17.5399 14.2991 18.5021 13.4016 19.2609 12.3424C20.0198 11.2832 20.5602 10.0835 20.8507 8.81333C20.873 8.72688 20.8778 8.63681 20.8647 8.54848C20.8516 8.46015 20.8209 8.37535 20.7743 8.29912C20.7278 8.22289 20.6665 8.15678 20.5939 8.10472C20.5214 8.05266 20.4391 8.0157 20.352 7.99604C20.2649 7.97639 20.1747 7.97443 20.0868 7.9903C19.9989 8.00616 19.9151 8.03952 19.8404 8.08839C19.7657 8.13726 19.7015 8.20064 19.6517 8.27479C19.602 8.34893 19.5676 8.43232 19.5507 8.52C19.2546 9.82057 18.656 11.033 17.8034 12.0588C16.9509 13.0846 15.8685 13.895 14.644 14.424C14.4987 14.4 14.3507 14.3933 14.2053 14.3787V8.66933C14.2016 8.6107 14.19 8.55283 14.1707 8.49733C14.1667 8.46856 14.1609 8.44006 14.1533 8.412C14.1224 8.34162 14.0796 8.27711 14.0267 8.22133C14.02 8.21467 14.0173 8.20533 14.012 8.2C13.9643 8.15597 13.9104 8.11914 13.852 8.09067C13.8333 8.08 13.8187 8.064 13.8 8.056C13.7553 8.04199 13.7093 8.03261 13.6627 8.028C13.6236 8.01573 13.5834 8.00725 13.5427 8.00267L12.6693 8H12.6667C12.4899 7.99965 12.3201 8.06955 12.1949 8.19432C12.0696 8.31909 11.999 8.48852 11.9987 8.66533C11.9983 8.84214 12.0682 9.01185 12.193 9.13713C12.3178 9.2624 12.4872 9.33298 12.664 9.33333H12.8667V16.6133C12.8667 16.6227 12.872 16.6307 12.872 16.64V17.9707C10.0334 15.5644 8.1403 12.2294 7.52933 8.55867C7.49678 8.38596 7.39861 8.23257 7.25544 8.13065C7.11226 8.02874 6.93518 7.98621 6.76133 8.012C6.58701 8.04137 6.43149 8.13878 6.32897 8.2828C6.22645 8.42682 6.18534 8.60567 6.21467 8.78C6.96524 13.2509 9.45872 17.2414 13.148 19.876C13.1613 19.8853 13.1773 19.8813 13.1893 19.8893C13.2924 19.96 13.4137 19.9994 13.5387 20.0027C13.6368 20.0014 13.7334 19.9782 13.8213 19.9347L13.8427 19.9293C13.856 19.9227 13.864 19.9053 13.8773 19.8973C13.9781 19.8377 14.061 19.752 14.1173 19.6493C14.1728 19.5541 14.2031 19.4462 14.2053 19.336V15.6827C15.4772 15.8418 16.6513 16.447 17.5187 17.3907L19.7147 19.7867C19.8342 19.9168 20.0005 19.9941 20.1771 20.0016C20.2645 20.0053 20.3517 19.9918 20.4339 19.9618C20.5161 19.9318 20.5916 19.8859 20.656 19.8267C20.7204 19.7675 20.7726 19.6962 20.8095 19.6169C20.8463 19.5375 20.8672 19.4517 20.871 19.3643C20.8747 19.2769 20.8611 19.1896 20.8311 19.1074C20.8011 19.0252 20.7552 18.9498 20.696 18.8853L18.5 16.4893ZM18.0973 0H9.916C2.04 0 0 2.036 0 9.90267V18.084C0 25.9613 2.036 28 9.90267 28H18.084C25.9613 28 28 25.964 28 18.0973V9.916C28 2.03867 25.964 0 18.0973 0ZM26.6667 18.0973C26.6667 25.2253 25.2227 26.6667 18.0827 26.6667H9.904C2.77333 26.6667 1.33333 25.2227 1.33333 18.0827V9.904C1.33333 2.77333 2.77733 1.33333 9.91733 1.33333H18.0973C25.2253 1.33333 26.6667 2.77733 26.6667 9.91733V18.0973Z" fill="#FD3B4A"/>
</svg>
