<svg width="28" height="28" viewBox="0 0 28 28" fill="none" xmlns="http://www.w3.org/2000/svg">
<path d="M14.0021 8.02101e-08C11.5512 -0.000262227 9.14314 0.64284 7.01874 1.86501C4.89433 3.08718 3.128 4.84559 1.89632 6.96444C0.664647 9.08329 0.0107931 11.4883 0.000132481 13.9391C-0.0105282 16.3899 0.622377 18.8005 1.83557 20.93L0.575521 25.354C0.494754 25.6413 0.491959 25.9448 0.567423 26.2335C0.642886 26.5222 0.793886 26.7856 1.00489 26.9966C1.2159 27.2076 1.47931 27.3586 1.76802 27.4341C2.05673 27.5096 2.36033 27.5068 2.64761 27.426L7.07178 26.166C8.93481 27.2268 11.0166 27.8455 13.1565 27.9746C15.2965 28.1037 17.4376 27.7396 19.4146 26.9104C21.3916 26.0812 23.1518 24.8091 24.5594 23.1922C25.967 21.5752 26.9845 19.6566 27.5334 17.5843C28.0823 15.512 28.1479 13.3413 27.7251 11.2396C27.3024 9.13787 26.4027 7.16131 25.0953 5.46231C23.7879 3.7633 22.1077 2.38722 20.1844 1.44017C18.2611 0.493124 16.1459 0.000402994 14.0021 8.02101e-08ZM14.0021 26.88C11.6855 26.8854 9.41104 26.2611 7.4218 25.074C7.33496 25.0298 7.23922 25.0058 7.14179 25.004H6.98778L2.33959 26.334C2.24461 26.3595 2.1446 26.3595 2.04961 26.3341C1.95461 26.3086 1.86799 26.2586 1.79846 26.1891C1.72892 26.1196 1.67892 26.033 1.65349 25.938C1.62805 25.843 1.62808 25.743 1.65357 25.648L2.98362 21C3.02299 20.8536 3.00286 20.6976 2.92762 20.566C1.47883 18.1211 0.879326 15.2658 1.2225 12.4447C1.56568 9.62363 2.83227 6.99526 4.82496 4.96901C6.81765 2.94276 9.42456 1.63241 12.2396 1.24207C15.0546 0.851739 17.9198 1.40334 20.3886 2.81094C22.8575 4.21855 24.7915 6.40312 25.8894 9.02438C26.9873 11.6456 27.1874 14.5564 26.4585 17.3032C25.7297 20.05 24.1128 22.4787 21.8598 24.2108C19.6067 25.943 16.844 26.8815 14.0021 26.88ZM21.0723 16.59L18.2162 14.966C17.9558 14.8168 17.6604 14.7395 17.3603 14.742C17.0602 14.7444 16.7661 14.8266 16.5082 14.98L14.5761 16.142C13.4123 15.5384 12.4636 14.5898 11.86 13.426L13.022 11.494C13.1755 11.2361 13.2576 10.942 13.2601 10.6419C13.2625 10.3418 13.1852 10.0464 13.036 9.786L11.412 6.93C11.2771 6.69643 11.0833 6.50237 10.8499 6.36724C10.6164 6.23211 10.3516 6.16064 10.0819 6.16C8.89611 6.15999 7.75868 6.63007 6.91888 7.46721C6.07908 8.30434 5.60543 9.44026 5.60173 10.626C5.59988 12.1715 5.90272 13.7022 6.49292 15.1307C7.08311 16.5591 7.94909 17.8571 9.04134 18.9506C10.1336 20.0441 11.4307 20.9116 12.8584 21.5035C14.2862 22.0954 15.8166 22.4 17.3622 22.4H17.3762C18.562 22.3963 19.6979 21.9227 20.5351 21.0829C21.3723 20.2431 21.8424 19.1057 21.8424 17.92C21.8417 17.6503 21.7703 17.3855 21.6351 17.1521C21.5 16.9187 21.3059 16.7248 21.0723 16.59ZM17.3762 21.28H17.3622C14.5389 21.2763 11.8325 20.1522 9.83743 18.1546C7.84236 16.157 6.72177 13.4492 6.72177 10.626C6.72547 9.7373 7.08112 8.88626 7.71087 8.25916C8.34062 7.63207 9.19316 7.27999 10.0819 7.28C10.1536 7.28098 10.2237 7.30093 10.2852 7.33782C10.3467 7.3747 10.3973 7.42721 10.4319 7.49L12.07 10.346C12.1178 10.4341 12.1428 10.5328 12.1428 10.633C12.1428 10.7332 12.1178 10.8319 12.07 10.92L10.7539 13.104C10.7054 13.1808 10.6774 13.2687 10.6725 13.3594C10.6676 13.45 10.686 13.5404 10.7259 13.622C11.4551 15.2466 12.7554 16.5469 14.3801 17.276C14.4616 17.3159 14.5521 17.3343 14.6427 17.3294C14.7334 17.3245 14.8213 17.2965 14.8981 17.248L17.0822 15.932C17.1703 15.8842 17.269 15.8592 17.3692 15.8592C17.4694 15.8592 17.5681 15.8842 17.6562 15.932L20.5123 17.57C20.5751 17.6046 20.6276 17.6552 20.6645 17.7167C20.7014 17.7782 20.7214 17.8483 20.7223 17.92C20.7223 18.8087 20.3703 19.6612 19.7431 20.2909C19.116 20.9207 18.2649 21.2763 17.3762 21.28Z" fill="#FD3B4A"/>
</svg>
