<svg width="80" height="80" viewBox="0 0 80 80" fill="none" xmlns="http://www.w3.org/2000/svg">
<path d="M63.75 47.5C58.7694 47.5047 53.8927 48.9245 49.6879 51.594C45.4831 54.2635 42.1233 58.0728 40 62.5781C37.8767 58.0728 34.5169 54.2635 30.3121 51.594C26.1073 48.9245 21.2306 47.5047 16.25 47.5H2.5V50C2.5 64.4744 14.2756 76.25 28.75 76.25H51.25C65.7244 76.25 77.5 64.4744 77.5 50V47.5H63.75ZM28.75 71.25C17.878 71.25 8.88688 63.0439 7.64625 52.5H16.25C27.122 52.5 36.1131 60.7061 37.3537 71.25H28.75ZM51.25 71.25H42.6463C43.8869 60.7061 52.878 52.5 63.75 52.5H72.3538C71.1131 63.0439 62.122 71.25 51.25 71.25Z" fill="#DE5A64"/>
<path d="M26.4413 41.0584C26.9142 43.8698 28.2554 46.4626 30.2768 48.4729L31.0092 49.2051H32.0446C34.8955 49.213 37.6773 48.3281 39.9996 46.6745C42.3219 48.3283 45.1037 49.2135 47.9546 49.2057H48.9901L49.7224 48.4735C51.7438 46.4632 53.0851 43.8704 53.5579 41.059C56.3693 40.5862 58.9621 39.2449 60.9724 37.2235L61.7046 36.4912V35.4557C61.7127 32.6046 60.8277 29.8226 59.174 27.5001C60.8278 25.1779 61.713 22.3961 61.7052 19.5451V18.5096L60.9731 17.7773C58.9627 15.7559 56.3699 14.4147 53.5585 13.9418C53.0857 11.1304 51.7445 8.53763 49.7231 6.5273L48.9907 5.79511H47.9552C45.1042 5.78706 42.3221 6.672 39.9996 8.32573C37.6774 6.67189 34.8956 5.78672 32.0446 5.79448H31.0092L30.2768 6.52667C28.2554 8.53701 26.9142 11.1298 26.4413 13.9412C23.6299 14.414 21.0371 15.7553 19.0268 17.7767L18.2946 18.509V19.5445C18.2866 22.3956 19.1715 25.1776 20.8252 27.5001C19.1714 29.8223 18.2862 32.6042 18.294 35.4551V36.4906L19.0262 37.2229C21.0367 39.2444 23.6297 40.5857 26.4413 41.0584ZM25.8576 25.7325C24.4711 24.3543 23.5902 22.5485 23.3576 20.6075C24.8946 19.3989 26.7944 18.7445 28.7496 18.7501H31.2496V16.2501C31.244 14.2951 31.8982 12.3955 33.1065 10.8585C35.0476 11.0912 36.8533 11.972 38.2315 13.3585L39.9996 15.1251L41.7673 13.3575C43.1455 11.9709 44.9512 11.0901 46.8923 10.8575C48.1009 12.3946 48.7554 14.2947 48.7496 16.2501V18.7501H51.2496C53.2046 18.7445 55.1043 19.3987 56.6412 20.607C56.4086 22.548 55.5277 24.3538 54.1412 25.732L52.3746 27.5001L54.1424 29.2679C55.529 30.6461 56.4098 32.4519 56.6424 34.3929C55.1052 35.6016 53.2051 36.2559 51.2496 36.2501H48.7496V38.7501C48.7553 40.7051 48.101 42.6048 46.8927 44.1417C44.9517 43.909 43.1459 43.0282 41.7677 41.6417L39.9996 39.8751L38.2318 41.6423C36.8536 43.0288 35.0479 43.9097 33.1068 44.1423C31.8983 42.6053 31.2439 40.7053 31.2496 38.7501V36.2501H28.7496C26.7946 36.2557 24.895 35.6015 23.3581 34.3932C23.5907 32.4522 24.4715 30.6464 25.8581 29.2682L27.6246 27.5001L25.8576 25.7325Z" fill="#DE5A64"/>
</svg>
