<svg width="77" height="54" viewBox="0 0 77 54" fill="none" xmlns="http://www.w3.org/2000/svg">
<path d="M76.2192 27.2188C75.9394 26.7102 75.5553 26.2664 75.0922 25.9164C74.6291 25.5663 74.0973 25.318 73.5317 25.1876C70.477 24.4263 67.3034 24.2671 64.1879 24.7188C65.3754 18.8126 64.4692 14.1876 63.5629 11.4376C63.237 10.4051 62.5372 9.53154 61.6007 8.98815C60.6642 8.44476 59.5586 8.2707 58.5004 8.50008C55.4441 9.17684 52.5404 10.4167 49.9379 12.1563C47.9727 7.7633 44.944 3.92909 41.1254 1.00008C40.3661 0.436872 39.4458 0.132812 38.5004 0.132812C37.555 0.132812 36.6347 0.436872 35.8754 1.00008C32.0568 3.92909 29.0281 7.7633 27.0629 12.1563C24.4604 10.4167 21.5568 9.17684 18.5004 8.50008C17.4423 8.2707 16.3366 8.44476 15.4001 8.98815C14.4636 9.53154 13.7639 10.4051 13.4379 11.4376C12.5317 14.1876 11.6254 18.8126 12.8129 24.7188C9.69743 24.2671 6.5238 24.4263 3.46917 25.1876C2.9035 25.318 2.37172 25.5663 1.90861 25.9164C1.4455 26.2664 1.06148 26.7102 0.781667 27.2188C0.489523 27.7189 0.300321 28.2723 0.225187 28.8465C0.150054 29.4207 0.190507 30.0042 0.344167 30.5626C1.43792 34.4376 4.75042 41.7813 14.7817 47.5626C24.8129 53.3438 33.7192 53.3751 38.5004 53.3751C43.2817 53.3751 52.1879 53.3751 62.2192 47.5626C72.2504 41.7501 75.5629 34.4376 76.6567 30.5626C76.8103 30.0042 76.8508 29.4207 76.7756 28.8465C76.7005 28.2723 76.5113 27.7189 76.2192 27.2188ZM59.2817 12.1563C59.4344 12.1267 59.5928 12.1551 59.7257 12.236C59.8586 12.3169 59.9566 12.4445 60.0004 12.5938C60.9067 15.3126 61.7504 20.1563 59.9067 26.4063C59.871 26.4961 59.8499 26.5911 59.8442 26.6876C59.0748 29.0832 58.048 31.3883 56.7817 33.5626C54.6455 37.2317 51.9218 40.5254 48.7192 43.3126C51.0317 39.2188 52.8754 33.6876 52.8754 26.5001C52.8942 22.8588 52.3675 19.2353 51.3129 15.7501C53.7037 14.0341 56.4128 12.8124 59.2817 12.1563ZM38.1254 4.00008C38.2336 3.91894 38.3652 3.87508 38.5004 3.87508C38.6356 3.87508 38.7672 3.91894 38.8754 4.00008C41.9692 6.31258 49.1254 13.0938 49.1254 26.5001C49.1254 40.6563 41.2504 47.3751 38.5004 49.2813C35.8129 47.3751 27.8754 40.5626 27.8754 26.5001C27.8754 13.0938 35.0317 6.31258 38.1254 4.00008ZM17.0004 12.5938C17.0443 12.4445 17.1422 12.3169 17.2751 12.236C17.4081 12.1551 17.5664 12.1267 17.7192 12.1563C20.588 12.8124 23.2971 14.0341 25.6879 15.7501C24.6333 19.2353 24.1067 22.8588 24.1254 26.5001C24.1254 33.6876 25.9692 39.2188 28.2817 43.3126C25.079 40.5254 22.3553 37.2317 20.2192 33.5626C18.9459 31.3919 17.9187 29.086 17.1567 26.6876C17.151 26.5911 17.1299 26.4961 17.0942 26.4063C15.2504 20.1563 16.0942 15.3126 17.0004 12.5938ZM3.96917 29.5626C3.92678 29.4072 3.93779 29.2422 4.00042 29.0938C4.04057 29.024 4.09452 28.963 4.15899 28.9146C4.22346 28.8663 4.2971 28.8316 4.37542 28.8126C6.43792 28.2813 9.68792 27.8751 13.8754 28.6876C14.6737 31.0372 15.7104 33.299 16.9692 35.4376C20.0813 40.8175 24.338 45.4476 29.4379 49.0001C24.9342 48.2215 20.6058 46.6447 16.6567 44.3438C7.75042 39.1876 4.87542 32.8751 3.96917 29.5626ZM73.0317 29.5626C72.1254 32.8751 69.2504 39.1876 60.3442 44.3438C56.395 46.6447 52.0666 48.2215 47.5629 49.0001C52.6628 45.4476 56.9195 40.8175 60.0317 35.4376C61.2905 33.299 62.3271 31.0372 63.1254 28.6876C67.3129 27.8751 70.5629 28.2813 72.6254 28.8126C72.7037 28.8316 72.7774 28.8663 72.8418 28.9146C72.9063 28.963 72.9603 29.024 73.0004 29.0938C73.063 29.2422 73.0741 29.4072 73.0317 29.5626Z" fill="#DE5A64"/>
</svg>
