<svg width="63" height="56" viewBox="0 0 63 56" fill="none" xmlns="http://www.w3.org/2000/svg">
<path d="M62.7978 26.515L55.2978 9.015C55.1054 8.5652 54.785 8.18183 54.3766 7.9125C53.9682 7.64317 53.4896 7.49973 53.0004 7.5H45.5004V2.5C45.5004 1.83696 45.237 1.20107 44.7681 0.732234C44.2993 0.263393 43.6634 0 43.0004 0H3.00035V5H40.5004V36.39C39.3612 37.0515 38.3642 37.9319 37.567 38.9806C36.7698 40.0293 36.188 41.2254 35.8554 42.5H20.1453C19.5369 40.1434 18.0898 38.0895 16.0753 36.7235C14.0609 35.3575 11.6174 34.773 9.20285 35.0797C6.78831 35.3864 4.56852 36.5632 2.95954 38.3894C1.35057 40.2157 0.462891 42.5661 0.462891 45C0.462891 47.4339 1.35057 49.7843 2.95954 51.6106C4.56852 53.4368 6.78831 54.6136 9.20285 54.9203C11.6174 55.227 14.0609 54.6425 16.0753 53.2765C18.0898 51.9105 19.5369 49.8566 20.1453 47.5H35.8554C36.3992 49.6456 37.6429 51.5486 39.3898 52.9079C41.1367 54.2673 43.2869 55.0053 45.5004 55.0053C47.7138 55.0053 49.864 54.2673 51.6109 52.9079C53.3578 51.5486 54.6015 49.6456 55.1453 47.5H60.5004C61.1634 47.5 61.7993 47.2366 62.2681 46.7678C62.737 46.2989 63.0004 45.663 63.0004 45V27.5C63.0005 27.1613 62.9316 26.8262 62.7978 26.515ZM10.5003 50C9.51144 50 8.54474 49.7068 7.7225 49.1573C6.90025 48.6079 6.25939 47.827 5.88095 46.9134C5.50251 45.9998 5.4035 44.9945 5.59642 44.0245C5.78935 43.0546 6.26555 42.1637 6.96481 41.4645C7.66408 40.7652 8.55499 40.289 9.5249 40.0961C10.4948 39.9031 11.5001 40.0022 12.4138 40.3806C13.3274 40.759 14.1083 41.3999 14.6577 42.2221C15.2071 43.0444 15.5003 44.0111 15.5003 45C15.499 46.3257 14.9718 47.5967 14.0344 48.5341C13.097 49.4715 11.826 49.9987 10.5003 50ZM45.5004 12.5H51.3503L56.7103 25H45.5004V12.5ZM45.5004 50C44.5114 50 43.5447 49.7068 42.7225 49.1573C41.9003 48.6079 41.2594 47.827 40.881 46.9134C40.5025 45.9998 40.4035 44.9945 40.5964 44.0245C40.7893 43.0546 41.2656 42.1637 41.9648 41.4645C42.6641 40.7652 43.555 40.289 44.5249 40.0961C45.4948 39.9031 46.5001 40.0022 47.4138 40.3806C48.3274 40.759 49.1083 41.3999 49.6577 42.2221C50.2071 43.0444 50.5004 44.0111 50.5004 45C50.499 46.3257 49.9718 47.5967 49.0344 48.5341C48.097 49.4715 46.826 49.9987 45.5004 50ZM58.0004 42.5H55.1453C54.5947 40.3586 53.3489 38.4604 51.6034 37.1031C49.858 35.7459 47.7114 35.0061 45.5004 35V30H58.0004V42.5Z" fill="#DE5A64"/>
</svg>
