<svg width="136" height="80" viewBox="0 0 136 80" fill="none" xmlns="http://www.w3.org/2000/svg">
<path d="M19.472 47V13.4H33.968C37.712 13.4 40.608 14.152 42.656 15.656C44.736 17.16 45.776 19.288 45.776 22.04C45.776 23.864 45.344 25.4 44.48 26.648C43.648 27.896 42.496 28.84 41.024 29.48C39.584 30.12 38 30.44 36.272 30.44L37.088 29.288C39.232 29.288 41.072 29.624 42.608 30.296C44.176 30.936 45.392 31.912 46.256 33.224C47.12 34.504 47.552 36.104 47.552 38.024C47.552 40.872 46.496 43.08 44.384 44.648C42.304 46.216 39.152 47 34.928 47H19.472ZM23.024 44.072H34.88C37.824 44.072 40.08 43.576 41.648 42.584C43.216 41.56 44 39.944 44 37.736C44 35.56 43.216 33.976 41.648 32.984C40.08 31.96 37.824 31.448 34.88 31.448H22.64V28.52H33.728C36.416 28.52 38.496 28.008 39.968 26.984C41.472 25.96 42.224 24.44 42.224 22.424C42.224 20.376 41.472 18.856 39.968 17.864C38.496 16.84 36.416 16.328 33.728 16.328H23.024V44.072ZM66.7588 47V16.472H54.9508V13.4H82.1188V16.472H70.3108V47H66.7588ZM106.957 47.288C104.429 47.288 102.093 46.872 99.9485 46.04C97.8045 45.176 95.9485 43.976 94.3805 42.44C92.8125 40.904 91.5805 39.096 90.6845 37.016C89.8205 34.936 89.3885 32.664 89.3885 30.2C89.3885 27.736 89.8205 25.464 90.6845 23.384C91.5805 21.304 92.8125 19.496 94.3805 17.96C95.9805 16.424 97.8525 15.24 99.9965 14.408C102.141 13.544 104.477 13.112 107.005 13.112C109.437 13.112 111.725 13.528 113.869 14.36C116.013 15.16 117.821 16.376 119.293 18.008L117.037 20.264C115.661 18.856 114.141 17.848 112.477 17.24C110.813 16.6 109.021 16.28 107.101 16.28C105.085 16.28 103.213 16.632 101.485 17.336C99.7565 18.008 98.2525 18.984 96.9725 20.264C95.6925 21.512 94.6845 22.984 93.9485 24.68C93.2445 26.344 92.8925 28.184 92.8925 30.2C92.8925 32.216 93.2445 34.072 93.9485 35.768C94.6845 37.432 95.6925 38.904 96.9725 40.184C98.2525 41.432 99.7565 42.408 101.485 43.112C103.213 43.784 105.085 44.12 107.101 44.12C109.021 44.12 110.813 43.8 112.477 43.16C114.141 42.52 115.661 41.496 117.037 40.088L119.293 42.344C117.821 43.976 116.013 45.208 113.869 46.04C111.725 46.872 109.421 47.288 106.957 47.288Z" fill="black"/>
<path d="M9.23438 58.7969V69.6875H15C15.3125 69.6875 15.5365 69.75 15.6719 69.875C15.8073 69.9896 15.875 70.1458 15.875 70.3438C15.875 70.5312 15.8073 70.6875 15.6719 70.8125C15.5365 70.9375 15.3125 71 15 71H4.73438C4.42188 71 4.19792 70.9375 4.0625 70.8125C3.92708 70.6875 3.85938 70.5312 3.85938 70.3438C3.85938 70.1458 3.92708 69.9896 4.0625 69.875C4.19792 69.75 4.42188 69.6875 4.73438 69.6875H7.90625V58.7969H5.0625C4.75 58.7969 4.52604 58.7344 4.39062 58.6094C4.25521 58.4844 4.1875 58.3229 4.1875 58.125C4.1875 57.9375 4.25521 57.7812 4.39062 57.6562C4.52604 57.5312 4.75 57.4688 5.0625 57.4688H7.90625V55.4844C7.90625 54.3802 8.35417 53.4219 9.25 52.6094C10.1458 51.7969 11.3333 51.3906 12.8125 51.3906C14.0521 51.3906 15.375 51.5052 16.7812 51.7344C17.3125 51.8177 17.6302 51.9167 17.7344 52.0312C17.849 52.1458 17.9062 52.2969 17.9062 52.4844C17.9062 52.6719 17.8438 52.8281 17.7188 52.9531C17.5938 53.0677 17.4271 53.125 17.2188 53.125C17.1354 53.125 16.9948 53.1094 16.7969 53.0781C15.224 52.8385 13.8958 52.7188 12.8125 52.7188C11.6667 52.7188 10.7812 53 10.1562 53.5625C9.54167 54.125 9.23438 54.7656 9.23438 55.4844V57.4688H15.375C15.6875 57.4688 15.9115 57.5312 16.0469 57.6562C16.1823 57.7812 16.25 57.9427 16.25 58.1406C16.25 58.3281 16.1823 58.4844 16.0469 58.6094C15.9115 58.7344 15.6875 58.7969 15.375 58.7969H9.23438ZM29.9844 51.3906V69.6875H35.1406C35.4635 69.6875 35.6927 69.75 35.8281 69.875C35.9635 69.9896 36.0312 70.1458 36.0312 70.3438C36.0312 70.5312 35.9635 70.6875 35.8281 70.8125C35.6927 70.9375 35.4635 71 35.1406 71H23.5156C23.2031 71 22.9792 70.9375 22.8438 70.8125C22.7083 70.6875 22.6406 70.5312 22.6406 70.3438C22.6406 70.1458 22.7083 69.9896 22.8438 69.875C22.9792 69.75 23.2031 69.6875 23.5156 69.6875H28.6719V52.7188H24.8906C24.5781 52.7188 24.349 52.6562 24.2031 52.5312C24.0677 52.4062 24 52.2448 24 52.0469C24 51.8594 24.0677 51.7031 24.2031 51.5781C24.3385 51.4531 24.5677 51.3906 24.8906 51.3906H29.9844ZM55.875 64.2656C55.875 66.2656 55.1562 67.974 53.7188 69.3906C52.2917 70.8073 50.5677 71.5156 48.5469 71.5156C46.5052 71.5156 44.7708 70.8073 43.3438 69.3906C41.9167 67.9635 41.2031 66.2552 41.2031 64.2656C41.2031 62.2656 41.9167 60.5573 43.3438 59.1406C44.7708 57.7135 46.5052 57 48.5469 57C50.5677 57 52.2917 57.7083 53.7188 59.125C55.1562 60.5417 55.875 62.2552 55.875 64.2656ZM54.5469 64.2656C54.5469 62.6198 53.9583 61.2188 52.7812 60.0625C51.6146 58.9062 50.1979 58.3281 48.5312 58.3281C46.8646 58.3281 45.4427 58.9115 44.2656 60.0781C43.099 61.2344 42.5156 62.6302 42.5156 64.2656C42.5156 65.8906 43.099 67.2865 44.2656 68.4531C45.4427 69.6198 46.8646 70.2031 48.5312 70.2031C50.1979 70.2031 51.6146 69.625 52.7812 68.4688C53.9583 67.3021 54.5469 65.901 54.5469 64.2656ZM72.2812 71L70.6562 71.0156L67.7656 62.5781L64.8906 71.0156L63.2656 71L60.5469 58.7969H59.9062C59.5938 58.7969 59.3698 58.7344 59.2344 58.6094C59.099 58.4844 59.0312 58.3229 59.0312 58.125C59.0312 57.9375 59.099 57.7812 59.2344 57.6562C59.3698 57.5312 59.5938 57.4688 59.9062 57.4688H63.5156C63.8281 57.4688 64.0521 57.5312 64.1875 57.6562C64.3229 57.7812 64.3906 57.9427 64.3906 58.1406C64.3906 58.3281 64.3229 58.4844 64.1875 58.6094C64.0521 58.7344 63.8281 58.7969 63.5156 58.7969H61.8438L64.1719 69.2031L66.9688 60.8906H68.5312L71.4062 69.2031L73.6406 58.7969H71.9844C71.6719 58.7969 71.4427 58.7344 71.2969 58.6094C71.1615 58.4844 71.0938 58.3229 71.0938 58.125C71.0938 57.9375 71.1615 57.7812 71.2969 57.6562C71.4323 57.5312 71.6615 57.4688 71.9844 57.4688H75.5781C75.901 57.4688 76.1302 57.5312 76.2656 57.6562C76.401 57.7812 76.4688 57.9427 76.4688 58.1406C76.4688 58.3281 76.401 58.4844 76.2656 58.6094C76.1302 58.7344 75.901 58.7969 75.5781 58.7969H74.9531L72.2812 71ZM94.0781 64.5469H80.7031C80.9323 66.2448 81.6406 67.6146 82.8281 68.6562C84.026 69.6875 85.5052 70.2031 87.2656 70.2031C88.2448 70.2031 89.2708 70.0417 90.3438 69.7188C91.4167 69.3958 92.2917 68.9688 92.9688 68.4375C93.1667 68.2812 93.3385 68.2031 93.4844 68.2031C93.651 68.2031 93.7969 68.2708 93.9219 68.4062C94.0469 68.5312 94.1094 68.6823 94.1094 68.8594C94.1094 69.0365 94.026 69.2083 93.8594 69.375C93.3594 69.8958 92.4688 70.3854 91.1875 70.8438C89.9167 71.2917 88.6094 71.5156 87.2656 71.5156C85.0156 71.5156 83.1354 70.7812 81.625 69.3125C80.125 67.8333 79.375 66.0469 79.375 63.9531C79.375 62.0469 80.0781 60.4115 81.4844 59.0469C82.901 57.6823 84.651 57 86.7344 57C88.8802 57 90.6458 57.7031 92.0312 59.1094C93.4167 60.5052 94.099 62.3177 94.0781 64.5469ZM92.75 63.2188C92.4896 61.7708 91.8021 60.5938 90.6875 59.6875C89.5833 58.7812 88.2656 58.3281 86.7344 58.3281C85.2031 58.3281 83.8854 58.776 82.7812 59.6719C81.6771 60.5677 80.9896 61.75 80.7188 63.2188H92.75ZM104.625 57.4688V60.7812C106.333 59.2396 107.609 58.25 108.453 57.8125C109.307 57.3646 110.094 57.1406 110.812 57.1406C111.594 57.1406 112.318 57.4062 112.984 57.9375C113.661 58.4583 114 58.8542 114 59.125C114 59.3229 113.932 59.4896 113.797 59.625C113.672 59.75 113.51 59.8125 113.312 59.8125C113.208 59.8125 113.12 59.7969 113.047 59.7656C112.974 59.724 112.839 59.6042 112.641 59.4062C112.276 59.0417 111.958 58.7917 111.688 58.6562C111.417 58.5208 111.151 58.4531 110.891 58.4531C110.318 58.4531 109.625 58.6823 108.812 59.1406C108.01 59.599 106.615 60.7188 104.625 62.5V69.6875H110.438C110.76 69.6875 110.99 69.75 111.125 69.875C111.26 69.9896 111.328 70.1458 111.328 70.3438C111.328 70.5312 111.26 70.6875 111.125 70.8125C110.99 70.9375 110.76 71 110.438 71H100.141C99.8281 71 99.6042 70.9427 99.4688 70.8281C99.3333 70.7031 99.2656 70.5469 99.2656 70.3594C99.2656 70.1823 99.3281 70.0365 99.4531 69.9219C99.5885 69.7969 99.8177 69.7344 100.141 69.7344H103.312V58.7969H100.891C100.578 58.7969 100.354 58.7344 100.219 58.6094C100.083 58.4844 100.016 58.3229 100.016 58.125C100.016 57.9375 100.078 57.7812 100.203 57.6562C100.339 57.5312 100.568 57.4688 100.891 57.4688H104.625ZM129.75 58.3281C129.75 58.026 129.812 57.8073 129.938 57.6719C130.062 57.5365 130.219 57.4688 130.406 57.4688C130.604 57.4688 130.766 57.5365 130.891 57.6719C131.016 57.8073 131.078 58.0365 131.078 58.3594V60.6094C131.078 60.9219 131.016 61.1458 130.891 61.2812C130.766 61.4167 130.604 61.4844 130.406 61.4844C130.229 61.4844 130.078 61.4271 129.953 61.3125C129.839 61.1979 129.771 61.0104 129.75 60.75C129.688 60.125 129.365 59.6094 128.781 59.2031C127.927 58.6198 126.797 58.3281 125.391 58.3281C123.922 58.3281 122.781 58.625 121.969 59.2188C121.354 59.6667 121.047 60.1667 121.047 60.7188C121.047 61.3438 121.411 61.8646 122.141 62.2812C122.641 62.5729 123.589 62.7969 124.984 62.9531C126.807 63.151 128.073 63.375 128.781 63.625C129.792 63.9896 130.542 64.4948 131.031 65.1406C131.531 65.7865 131.781 66.4844 131.781 67.2344C131.781 68.349 131.245 69.3438 130.172 70.2188C129.099 71.0833 127.526 71.5156 125.453 71.5156C123.38 71.5156 121.682 70.9896 120.359 69.9375C120.359 70.2917 120.339 70.5208 120.297 70.625C120.255 70.7292 120.177 70.8177 120.062 70.8906C119.958 70.9635 119.839 71 119.703 71C119.516 71 119.359 70.9323 119.234 70.7969C119.109 70.6615 119.047 70.4375 119.047 70.125V67.4219C119.047 67.1094 119.104 66.8854 119.219 66.75C119.344 66.6146 119.505 66.5469 119.703 66.5469C119.891 66.5469 120.047 66.6146 120.172 66.75C120.307 66.875 120.375 67.0469 120.375 67.2656C120.375 67.7448 120.495 68.1458 120.734 68.4688C121.099 68.9688 121.677 69.3854 122.469 69.7188C123.271 70.0417 124.25 70.2031 125.406 70.2031C127.115 70.2031 128.385 69.8854 129.219 69.25C130.052 68.6146 130.469 67.9427 130.469 67.2344C130.469 66.4219 130.047 65.7708 129.203 65.2812C128.349 64.7917 127.104 64.4635 125.469 64.2969C123.844 64.1302 122.677 63.9115 121.969 63.6406C121.26 63.3698 120.708 62.9635 120.312 62.4219C119.917 61.8802 119.719 61.2969 119.719 60.6719C119.719 59.5469 120.271 58.6562 121.375 58C122.479 57.3333 123.797 57 125.328 57C127.141 57 128.615 57.4427 129.75 58.3281Z" fill="black"/>
</svg>
